# xmcd
#
# Track frame offsets: 
#        150
#        33376
#        62535
#        87937
#        117308
#        142433
#        166466
#        194499
#        226900
#        251290
#        276861
#        307993
#
# Disc length: 4544 seconds
#
# Revision: 0
# Processed by: cddbd v1.5.2PL0 Copyright (c) Steve Scherf et al.
# Submitted via: ExactAudioCopy v0.95b4
#
DISCID=a711be0c
DTITLE=Bob Jones and Mr. Pete - Live from Boulevard Music
DYEAR=1900
DGENRE=Blues
TTITLE0=Blue Bird
TTITLE1=School Girl
TTITLE2=Drive Me Crazy
TTITLE3=Kind Hearted Woman
TTITLE4=Step in the Light
TTITLE5=Crossroads
TTITLE6=Hold Me
TTITLE7=Gypsy Woman
TTITLE8=Can't be Satisfied
TTITLE9=Checkin Up
TTITLE10=Mother's Prayer
TTITLE11=Terreplane Blues
EXTD=
EXTT0=Blue Bird\n
EXTT1=
EXTT2=
EXTT3=
EXTT4=
EXTT5=
EXTT6=
EXTT7=
EXTT8=
EXTT9=
EXTT10=
EXTT11=
PLAYORDER=
